<mxfile host="app.diagrams.net" modified="2023-03-27T12:02:56.534Z" agent="Mozilla/5.0 (Windows NT 10.0; Win64; x64; rv:109.0) Gecko/20100101 Firefox/111.0" version="21.1.1" etag="B2_sT5pNYedN77Vf5swD" type="github">
  <diagram name="第 1 页" id="IvPEs737Ion16gB3axOS">
    <mxGraphModel>
      <root>
        <mxCell id="0" />
        <mxCell id="1" parent="0" />
      </root>
    </mxGraphModel>
  </diagram>
</mxfile>
